<svg width="74" height="74" viewBox="0 0 74 74" fill="none" xmlns="http://www.w3.org/2000/svg">
<path d="M61.2688 0.568726H12.6188C5.90814 0.586969 0.474543 6.02057 0.456299 12.7312V61.3812C0.456299 68.0706 5.92942 73.5437 12.6188 73.5437H61.2688C67.9582 73.5437 73.4313 68.0706 73.4313 61.3812V12.7312C73.4313 6.04185 67.9582 0.568726 61.2688 0.568726ZM54.6189 51.8185C54.0108 53.284 53.0469 54.5763 51.8125 55.5706C50.5354 56.6044 48.9178 57.4558 46.9262 58.0639C44.9376 58.6812 42.572 58.9913 39.8324 58.9913H20.2751V16.4225H40.9574C44.7825 16.4225 47.8475 17.283 50.1401 19.0375C52.451 20.801 53.6003 23.4281 53.6003 26.9735C53.6003 29.1172 53.0774 30.9567 52.0253 32.477C50.9793 33.9882 49.4712 35.171 47.5252 35.992V36.1319C50.1219 36.6792 52.1317 37.9106 53.4544 39.8262C54.7771 41.7418 55.4551 44.1622 55.4551 47.0842C55.4551 48.7201 55.1389 50.2769 54.5429 51.7303L54.6189 51.8124V51.8185ZM46.1782 41.3283C44.9315 40.1881 43.1801 39.6316 40.9179 39.6316H27.7763V52.9131H40.9544C43.2044 52.9131 44.968 52.3293 46.2147 51.1495C47.4613 49.9789 48.0998 48.3096 48.0998 46.1629C48.0786 44.0649 47.4613 42.4412 46.2147 41.3283H46.163H46.1782ZM44.3538 32.7446C45.5579 31.723 46.1478 30.2604 46.1478 28.354C46.1478 26.2134 45.6157 24.693 44.5362 23.8234C43.4659 22.9568 41.9213 22.5068 39.8902 22.5068H27.7277V34.2528H39.8902C41.6628 34.2528 43.174 33.7359 44.3416 32.7446H44.3538Z" fill="#563D7C"/>
</svg>
