<svg width="53" height="79" viewBox="0 0 53 79" fill="none" xmlns="http://www.w3.org/2000/svg">
<path d="M26.2292 39.3439C26.2292 35.8657 27.611 32.5299 30.0704 30.0704C32.5299 27.611 35.8657 26.2292 39.3439 26.2292C42.8221 26.2292 46.1578 27.611 48.6173 30.0704C51.0768 32.5299 52.4585 35.8657 52.4585 39.3439C52.4585 42.8221 51.0768 46.1578 48.6173 48.6173C46.1578 51.0768 42.8221 52.4585 39.3439 52.4585C35.8657 52.4585 32.5299 51.0768 30.0704 48.6173C27.611 46.1578 26.2292 42.8221 26.2292 39.3439ZM0 65.5731C0 62.0949 1.38172 58.7592 3.84118 56.2997C6.30065 53.8402 9.63641 52.4585 13.1146 52.4585H26.2292V65.5731C26.2292 69.0513 24.8475 72.3871 22.3881 74.8466C19.9286 77.306 16.5928 78.6877 13.1146 78.6877C9.63641 78.6877 6.30065 77.306 3.84118 74.8466C1.38172 72.3871 0 69.0513 0 65.5731ZM26.2292 0V26.2292H39.3439C42.8221 26.2292 46.1578 24.8475 48.6173 22.3881C51.0768 19.9286 52.4585 16.5928 52.4585 13.1146C52.4585 9.63641 51.0768 6.30065 48.6173 3.84118C46.1578 1.38172 42.8221 0 39.3439 0L26.2292 0ZM0 13.1146C0 16.5928 1.38172 19.9286 3.84118 22.3881C6.30065 24.8475 9.63641 26.2292 13.1146 26.2292H26.2292V0H13.1146C9.63641 0 6.30065 1.38172 3.84118 3.84118C1.38172 6.30065 0 9.63641 0 13.1146ZM0 39.3439C0 42.8221 1.38172 46.1578 3.84118 48.6173C6.30065 51.0768 9.63641 52.4585 13.1146 52.4585H26.2292V26.2292H13.1146C9.63641 26.2292 6.30065 27.611 3.84118 30.0704C1.38172 32.5299 0 35.8657 0 39.3439Z" fill="#F24E1E"/>
</svg>
