<svg width="54" height="74" viewBox="0 0 54 74" fill="none" xmlns="http://www.w3.org/2000/svg">
<path d="M2.60435 48.0623L9.81968 1.80694C9.87191 1.46407 10.0313 1.14635 10.2753 0.899021C10.5192 0.651693 10.8352 0.48736 11.1782 0.429417C11.5213 0.371474 11.874 0.422874 12.1861 0.576299C12.4981 0.729725 12.7537 0.977356 12.9163 1.28394L20.6747 15.7912L2.60435 48.0623ZM53.8438 59.2856L46.9733 16.7186C46.9228 16.4202 46.791 16.1415 46.5923 15.9127C46.3936 15.6839 46.1356 15.514 45.8466 15.4214C45.5575 15.3288 45.2485 15.3172 44.9533 15.3878C44.6581 15.4583 44.388 15.6084 44.1726 15.8216L0.850098 59.2856L24.8208 72.7499C25.5601 73.1638 26.3938 73.3812 27.2417 73.3812C28.0897 73.3812 28.9233 73.1638 29.6626 72.7499L53.8438 59.2856ZM34.364 22.1402L28.8114 11.5524C28.6713 11.2862 28.4608 11.0632 28.2027 10.9076C27.9445 10.752 27.6486 10.6698 27.347 10.6698C27.0453 10.6698 26.7494 10.752 26.4913 10.9076C26.2332 11.0632 26.0226 11.2862 25.8826 11.5524L1.50604 55.0894L34.364 22.1402Z" fill="#FFCA28"/>
</svg>
