<svg width="73" height="73" viewBox="0 0 73 73" fill="none" xmlns="http://www.w3.org/2000/svg">
<path d="M70.743 32.8388L39.2593 1.35874C37.4446 -0.452913 34.5062 -0.452913 32.6855 1.35874L26.1628 7.8933L34.4551 16.1854C36.393 15.5395 38.5983 15.9751 40.1306 17.5104C41.6809 19.0576 42.1075 21.2899 41.4465 23.2187L49.4323 31.2104C51.3702 30.5404 53.5995 30.9761 55.1408 32.5173C57.307 34.6805 57.307 38.1776 55.1408 40.3408C52.9806 42.5009 49.4894 42.5009 47.3292 40.3408C45.7098 38.7154 45.3042 36.3239 46.1154 34.344L38.6373 26.9051V46.5088C39.1661 46.7672 39.6649 47.1187 40.1035 47.5543C42.2457 49.7205 42.2457 53.2116 40.1035 55.3657C37.9433 57.5319 34.4281 57.5319 32.2649 55.3657C30.1047 53.2056 30.1047 49.7205 32.2649 47.5603C32.8117 47.0195 33.4276 46.6109 34.0826 46.3405V26.5446C33.4306 26.2712 32.8087 25.8776 32.2799 25.3398C30.6425 23.7024 30.2489 21.3079 31.0901 19.304L22.942 11.117L1.35201 32.6916C-0.450669 34.5092 -0.450669 37.4505 1.35201 39.2682L32.8387 70.7453C34.6534 72.5599 37.5918 72.5599 39.4065 70.7453L70.743 39.4094C72.5607 37.5978 72.5607 34.6565 70.743 32.8388Z" fill="#F05032"/>
</svg>
