<svg width="81" height="79" viewBox="0 0 81 79" fill="none" xmlns="http://www.w3.org/2000/svg">
<path d="M40.1469 0C17.9657 0 0 18.0035 0 40.2089C0 57.9779 11.5021 73.0461 27.4505 78.3571C29.4578 78.7357 30.1938 77.4926 30.1938 76.4237C30.1938 75.4687 30.1604 72.9389 30.1436 69.5882C18.9761 72.0141 16.6208 64.1935 16.6208 64.1935C14.7941 59.5527 12.1545 58.3129 12.1545 58.3129C8.51784 55.82 12.4355 55.8702 12.4355 55.8702C16.4669 56.1517 18.5847 60.0118 18.5847 60.0118C22.1644 66.1604 27.9824 64.3845 30.2775 63.3558C30.6388 60.7556 31.6726 58.9831 32.8201 57.9779C23.9041 56.9726 14.5332 53.5147 14.5332 38.108C14.5332 33.7185 16.0889 30.1332 18.665 27.3186C18.2133 26.3033 16.8584 22.2154 19.0163 16.6766C19.0163 16.6766 22.3786 15.5977 30.0567 20.798C33.2684 19.9034 36.6809 19.4611 40.0934 19.441C43.5059 19.4611 46.9184 19.9034 50.1301 20.798C57.758 15.5977 61.1203 16.6766 61.1203 16.6766C63.2782 22.2154 61.9233 26.3033 61.5218 27.3186C64.0812 30.1332 65.6369 33.7185 65.6369 38.108C65.6369 53.5549 56.2525 56.9559 47.3198 57.9444C48.725 59.1506 50.0298 61.6168 50.0298 65.383C50.0298 70.7643 49.9796 75.0867 49.9796 76.3935C49.9796 77.449 50.6821 78.7055 52.7397 78.3035C68.8018 73.0294 80.2938 57.9511 80.2938 40.2089C80.2938 18.0035 62.3181 0 40.1469 0Z" fill="#E5E5E5"/>
</svg>
