<svg width="61" height="61" viewBox="0 0 61 61" fill="none" xmlns="http://www.w3.org/2000/svg">
<path d="M31.0943 29.3253L30.416 29.9945L29.7347 29.3253C28.4686 28.0754 26.7612 27.3746 24.9821 27.3746C23.203 27.3746 21.4955 28.0754 20.2295 29.3253C19.6011 29.9298 19.1012 30.6549 18.7598 31.4572C18.4184 32.2595 18.2424 33.1224 18.2424 33.9943C18.2424 34.8662 18.4184 35.7291 18.7598 36.5314C19.1012 37.3337 19.6011 38.0588 20.2295 38.6633L30.416 48.6673L40.6025 38.6633C41.2309 38.0588 41.7308 37.3337 42.0722 36.5314C42.4136 35.7291 42.5896 34.8662 42.5896 33.9943C42.5896 33.1224 42.4136 32.2595 42.0722 31.4572C41.7308 30.6549 41.2309 29.9298 40.6025 29.3253C39.336 28.0752 37.628 27.3743 35.8484 27.3743C34.0688 27.3743 32.3608 28.0752 31.0943 29.3253Z" fill="#E5E5E5"/>
<path d="M59.9415 28.2668L32.5665 0.89182C32.2842 0.60911 31.949 0.384824 31.58 0.231796C31.211 0.0787672 30.8155 0 30.416 0C30.0165 0 29.621 0.0787672 29.252 0.231796C28.883 0.384824 28.5478 0.60911 28.2656 0.89182L0.89056 28.2668C0.465306 28.6922 0.17572 29.2341 0.0584106 29.8241C-0.0588991 30.414 0.00133514 31.0255 0.231498 31.5812C0.461661 32.1369 0.851419 32.6119 1.3515 32.9461C1.85158 33.2804 2.43953 33.4588 3.04102 33.4589H6.08268V54.7506C6.08268 58.1056 8.81106 60.8339 12.166 60.8339H48.666C52.021 60.8339 54.7494 58.1056 54.7494 54.7506V33.4589H57.791C58.3925 33.4588 58.9805 33.2804 59.4805 32.9461C59.9806 32.6119 60.3704 32.1369 60.6005 31.5812C60.8307 31.0255 60.8909 30.414 60.7736 29.8241C60.6563 29.2341 60.3667 28.6922 59.9415 28.2668ZM48.6691 54.7506H12.166V25.5962L30.416 7.34624L48.666 25.5962V39.5423L48.6691 54.7506Z" fill="#E5E5E5"/>
</svg>
