<svg width="81" height="79" viewBox="0 0 81 79" fill="none" xmlns="http://www.w3.org/2000/svg">
<path d="M73.5544 0H7.59481C3.56675 0 0.293945 3.19669 0.293945 7.13108V71.5567C0.293945 75.4911 3.56675 78.6877 7.59481 78.6877H73.5544C77.5824 78.6877 80.8552 75.4911 80.8552 71.5567V7.13108C80.8552 3.19669 77.5824 0 73.5544 0ZM27.2148 15.3015C29.8935 15.3015 32.1425 17.367 32.1425 20.0228C32.1425 22.7113 29.8935 24.7571 27.2148 24.7571V24.8457C24.5194 24.8457 22.3342 22.7145 22.3342 20.0752C22.3342 17.4359 24.516 15.3048 27.2182 15.3048L27.2148 15.3015ZM60.1644 60.5961C55.183 60.5961 52.7662 57.6945 52.7662 53.7437C52.7662 52.6093 52.9139 51.4061 53.2697 50.2028L55.653 41.8586C55.9484 40.9406 56.0222 40.0881 56.0222 39.3176C56.0222 36.6291 54.3438 35.0062 51.6719 35.0062C48.2715 35.0062 46.0326 37.3898 44.8745 41.9897L40.2423 60.1371H32.1391L33.5892 54.4322C31.2127 58.2552 27.8996 60.6125 23.8212 60.6125C18.8969 60.6125 16.5807 57.8519 16.5807 53.6847C16.5942 52.488 16.7385 51.2913 17.0171 50.1274V50.1339L20.7095 35.4128H14.9796L16.7184 29.1669H30.4809L25.043 50.1667C24.6906 51.511 24.5395 52.6257 24.5395 53.3995C24.5395 54.7437 25.2176 55.1372 26.275 55.3798C26.9295 55.5109 32.0653 55.4191 34.8682 49.3471L38.4263 35.4128H32.6426L34.3881 29.2653H46.8751L45.2639 36.3472C47.4357 32.4128 51.7659 28.6259 56.0457 28.6259C60.5773 28.6259 64.3536 31.8226 64.3536 37.8718C64.3536 39.6226 64.085 41.3635 63.548 43.0356L61.2318 51.1536C61.0304 51.9864 60.8827 52.6782 60.8827 53.3175C60.8827 54.7404 61.4869 55.4322 62.5409 55.4322C63.595 55.4322 65.0081 54.6454 66.569 50.3175L69.7344 51.4979C67.8714 57.9371 64.4442 60.5928 60.1677 60.5928L60.1644 60.5961Z" fill="#FF3366"/>
</svg>
