<svg width="76" height="75" viewBox="0 0 76 75" fill="none" xmlns="http://www.w3.org/2000/svg">
<path d="M0.324951 0H75.0375V74.7125H0.324951V0ZM68.9173 56.8936C68.3725 53.4848 66.1529 50.6208 59.5689 47.9499C57.2777 46.8759 54.7312 46.1287 53.9748 44.401C53.6915 43.3737 53.6479 42.8134 53.8316 42.2063C54.2985 40.1953 56.68 39.5914 58.5478 40.1517C59.7619 40.5253 60.8825 41.4592 61.5861 42.9535C64.805 40.8491 64.805 40.8491 67.0494 39.4513C66.2089 38.1438 65.7918 37.5804 65.2252 37.0232C63.264 34.8285 60.6522 33.7078 56.4029 33.8043L54.2082 34.0814C52.1038 34.595 50.099 35.7157 48.885 37.2099C45.3361 41.2289 46.3603 48.2331 50.6563 51.1283C54.9055 54.3035 61.1191 55.0009 61.913 57.9925C62.6601 61.6347 59.2046 62.8021 55.7928 62.3818C53.2681 61.8215 51.8704 60.5576 50.3294 58.2228L44.6326 61.4946C45.2863 62.9889 46.0334 63.6395 47.1541 64.947C52.5708 70.4134 66.1124 70.1332 68.5437 61.8215C68.634 61.5413 69.2908 59.6268 68.7741 56.685L68.9173 56.8936ZM40.953 34.3397H33.9549C33.9549 40.3728 33.9269 46.3685 33.9269 52.4108C33.9269 56.2461 34.123 59.7669 33.4973 60.8502C32.47 62.9951 29.8239 62.7211 28.6223 62.3445C27.3896 61.7343 26.7638 60.8938 26.0385 59.6828C25.8424 59.356 25.6961 59.0727 25.6432 59.0727L19.9619 62.5748C20.9114 64.536 22.2967 66.2233 24.0835 67.2973C26.7452 68.8849 30.322 69.3986 34.067 68.5581C36.5045 67.8545 38.6058 66.407 39.7047 64.1656C41.2923 61.2705 40.9561 57.7216 40.9405 53.7494C40.9779 47.3553 40.9405 40.958 40.9405 34.5141L40.953 34.3397Z" fill="#F7DF1E"/>
</svg>
