<svg width="89" height="89" viewBox="0 0 89 89" fill="none" xmlns="http://www.w3.org/2000/svg">
<path d="M75.8243 75.8428H62.6449V55.1911C62.6449 50.2665 62.5448 43.9289 55.777 43.9289C48.9055 43.9289 47.856 49.2875 47.856 54.8277V75.8428H34.6766V33.375H47.3369V39.1637H47.5075C49.2763 35.8262 53.578 32.3033 60.0045 32.3033C73.3582 32.3033 75.828 41.092 75.828 52.5322V75.8428H75.8243ZM19.7914 27.564C15.549 27.564 12.1411 24.1301 12.1411 19.9063C12.1411 15.6862 15.5527 12.256 19.7914 12.256C24.0189 12.256 27.4454 15.6862 27.4454 19.9063C27.4454 24.1301 24.0152 27.564 19.7914 27.564ZM26.3996 75.8428H13.1831V33.375H26.3996V75.8428ZM82.4177 0H6.56746C2.937 0 0 2.87025 0 6.41171V82.5883C0 86.1335 2.937 89 6.56746 89H82.4066C86.0333 89 89 86.1335 89 82.5883V6.41171C89 2.87025 86.0333 0 82.4066 0H82.4177Z" fill="#0077B5"/>
</svg>
