<svg width="64" height="73" viewBox="0 0 64 73" fill="none" xmlns="http://www.w3.org/2000/svg">
<path d="M31.9986 72.1937C31.0421 72.1937 30.0886 71.9414 29.2512 71.4517L20.5026 66.233C19.1975 65.4969 19.8351 65.2356 20.2642 65.0823C22.0074 64.4724 22.359 64.3312 24.2214 63.2677C24.4151 63.1565 24.6713 63.1986 24.871 63.3187L31.5934 67.3416C31.8377 67.4768 32.1804 67.4768 32.4039 67.3416L58.6111 52.0913C58.8554 51.9501 59.0103 51.6677 59.0103 51.3763V20.8817C59.0103 20.5842 58.8524 20.3048 58.6021 20.1546L32.4068 4.91631C32.1655 4.7751 31.8437 4.7751 31.5993 4.91631L5.40999 20.1576C5.15671 20.3048 4.9958 20.5932 4.9958 20.8817V51.3763C4.9958 51.6677 5.15671 51.9441 5.40999 52.0823L12.5883 56.2644C16.4829 58.2293 18.8697 55.9159 18.8697 53.5905V23.4835C18.8697 23.0568 19.2094 22.7234 19.6325 22.7234H22.955C23.3692 22.7234 23.7148 23.0599 23.7148 23.4835V53.5905C23.7148 58.8332 20.884 61.8376 15.9554 61.8376C14.4417 61.8376 13.2468 61.8376 9.9184 60.1822L3.04106 56.1953C1.34259 55.2069 0.293701 53.3562 0.293701 51.3763V20.8817C0.293701 18.9018 1.34556 17.0511 3.04106 16.0656L29.2483 0.797282C30.908 -0.149102 33.1101 -0.149102 34.7549 0.797282L60.9591 16.0656C62.6576 17.0541 63.7125 18.9018 63.7125 20.8817V51.3763C63.7125 53.3562 62.6576 55.2009 60.9591 56.1953L34.7549 71.4517C33.9206 71.9414 32.97 72.1937 31.9986 72.1937ZM53.1581 42.1288C53.1581 36.4204 49.332 34.9002 41.2777 33.8276C33.1399 32.743 32.3115 32.1812 32.3115 30.2614C32.3115 28.6751 33.0117 26.557 39.0398 26.557C44.4243 26.557 46.4088 27.7257 47.2253 31.385C47.2968 31.7305 47.6097 31.9829 47.9613 31.9829H51.3612C51.5728 31.9829 51.7725 31.8898 51.9155 31.7396C52.0585 31.5773 52.136 31.37 52.1151 31.1507C51.5877 24.8475 47.4339 21.9092 39.0398 21.9092C31.5665 21.9092 27.1088 25.0878 27.1088 30.4206C27.1088 36.2041 31.5427 37.8024 38.715 38.5175C47.2968 39.3647 47.9613 40.6296 47.9613 42.33C47.9613 45.2834 45.6103 46.5422 40.0887 46.5422C33.1548 46.5422 31.6291 44.7876 31.1166 41.3086C31.057 40.936 30.7411 40.6626 30.3627 40.6626H26.9747C26.5545 40.6626 26.2178 40.9991 26.2178 41.4227C26.2178 45.8752 28.6195 51.181 40.0887 51.181C48.3964 51.184 53.1581 47.8882 53.1581 42.1288Z" fill="#339933"/>
</svg>
