<svg width="79" height="73" viewBox="0 0 79 73" fill="none" xmlns="http://www.w3.org/2000/svg">
<path d="M68.9172 0H10.0973C4.68256 0 0.293945 4.07515 0.293945 9.10308V63.7216C0.293945 68.7465 4.68256 72.8246 10.0973 72.8246H68.9172C74.3286 72.8246 78.7205 68.7465 78.7205 63.7216V9.10308C78.7205 4.07515 74.3286 0 68.9172 0ZM34.4095 55.1647C34.4095 57.577 32.3018 59.5341 29.7039 59.5341H15.195C12.5971 59.5341 10.4894 57.574 10.4894 55.1647V13.8367C10.4894 11.4244 12.5971 9.4672 15.195 9.4672H29.7039C32.3018 9.4672 34.4095 11.4244 34.4095 13.8367V55.1647ZM68.525 36.9585C68.525 39.3678 66.4173 41.328 63.8194 41.328H49.3105C46.7127 41.328 44.6049 39.3678 44.6049 36.9585V13.8367C44.6049 11.4244 46.7159 9.4672 49.3105 9.4672H63.8194C66.4173 9.4672 68.525 11.4244 68.525 13.8367V36.9585Z" fill="#0079BF"/>
</svg>
