<svg width="72" height="73" viewBox="0 0 72 73" fill="none" xmlns="http://www.w3.org/2000/svg">
<path d="M0.0625 36.0531V72.1062H71.3V0H0.0625V36.0531ZM57.471 33.1809C59.2816 33.6376 60.6589 34.4518 61.9263 35.7797C62.5823 36.4888 63.5559 37.7807 63.6331 38.0931C63.6568 38.1833 60.558 40.2864 58.6821 41.4671C58.6138 41.5122 58.3407 41.2147 58.038 40.7581C57.1178 39.4061 56.1591 38.8232 54.6898 38.7211C52.5289 38.5708 51.1398 39.7155 51.1517 41.6263C51.132 42.0962 51.2365 42.5629 51.4544 42.9783C51.9293 43.9728 52.8139 44.5707 55.5803 45.7815C60.6826 48.0047 62.8643 49.4679 64.2208 51.55C65.7346 53.8724 66.0759 57.5828 65.0459 60.3409C63.918 63.3393 61.113 65.3763 57.1653 66.0493C55.9454 66.2686 53.0513 66.2356 51.7394 65.9952C48.878 65.4785 46.165 64.0484 44.491 62.1706C43.835 61.4405 42.5557 59.5267 42.6358 59.3915C42.6685 59.3434 42.9623 59.1602 43.2888 58.9679C43.6094 58.7846 44.8056 58.0846 45.9365 57.4206L47.9846 56.2188L48.415 56.8618C49.0145 57.7872 50.3235 59.058 51.116 59.4816C53.3897 60.6954 56.5093 60.5242 58.0469 59.1271C58.356 58.8635 58.6008 58.5311 58.762 58.1558C58.9231 57.7805 58.9964 57.3726 58.9759 56.9639C58.9759 56.1287 58.872 55.7622 58.4416 55.1312C57.8895 54.3321 56.7586 53.6591 53.547 52.247C49.8724 50.6456 48.2903 49.6512 46.8418 48.0708C45.9377 47.0279 45.2701 45.7973 44.8857 44.4655C44.6156 43.447 44.5474 40.8933 44.7611 39.8657C45.518 36.2694 48.1983 33.7668 52.0659 33.0217C53.3214 32.7813 56.2392 32.8714 57.471 33.1809ZM40.748 36.1913L40.7718 39.1447H31.496V65.812H24.9363V39.1447H15.6694V36.2484C15.6694 34.644 15.7021 33.3041 15.7466 33.274C15.7822 33.226 21.4248 33.2019 28.2636 33.2139L40.7154 33.25L40.748 36.1913Z" fill="#007ACC"/>
</svg>
