<svg width="77" height="73" viewBox="0 0 77 73" fill="none" xmlns="http://www.w3.org/2000/svg">
<path d="M73.3598 7.70172L57.7938 0.451286C56.9141 0.0412 55.9244 -0.0939593 54.9619 0.0645252C53.9993 0.22301 53.1115 0.667296 52.4213 1.33586L22.6126 27.6595L9.63042 18.1183C9.04472 17.6883 8.322 17.4702 7.58761 17.502C6.85322 17.5337 6.15347 17.8133 5.60972 18.2922L1.44406 21.9586C1.11945 22.2442 0.860027 22.5924 0.68241 22.9807C0.504794 23.369 0.412895 23.7889 0.412598 24.2136C0.412302 24.6382 0.503614 25.0583 0.680688 25.4468C0.857762 25.8354 1.1167 26.1838 1.44091 26.4699L12.6995 36.4137L1.44091 46.3575C1.1167 46.6436 0.857762 46.9921 0.680688 47.3806C0.503614 47.7691 0.412302 48.1892 0.412598 48.6138C0.412895 49.0385 0.504794 49.4584 0.68241 49.8467C0.860027 50.2351 1.11945 50.5832 1.44406 50.8688L5.61287 54.5322C6.15662 55.0111 6.85637 55.2906 7.59076 55.3224C8.32516 55.3541 9.04787 55.1361 9.63357 54.706L22.6158 45.1649L52.4244 71.4885C53.1139 72.1572 54.0012 72.6016 54.9633 72.7601C55.9254 72.9186 56.9147 72.7834 57.7938 72.3731L73.3661 65.1226C74.1673 64.7483 74.8431 64.1627 75.3158 63.4332C75.7884 62.7037 76.0389 61.8598 76.0382 60.9987V11.8257C76.0383 10.9639 75.7869 10.1196 75.3131 9.38997C74.8392 8.66038 74.1622 8.07517 73.3598 7.70172ZM57.1447 53.0315L34.5266 36.4137L57.1447 19.796V53.0315Z" fill="#007ACC"/>
</svg>
